<?xml version="1.0" encoding="UTF-8"?>
<svg xmlns="http://www.w3.org/2000/svg" xmlns:xlink="http://www.w3.org/1999/xlink" width="32pt" height="32pt" viewBox="0 0 32 32" version="1.1">
<g id="surface1">
<path style=" stroke:none;fill-rule:nonzero;fill:rgb(100%,100%,100%);fill-opacity:1;" d="M 32 19.519531 C 32 16.65625 29.996094 14.160156 27.015625 12.808594 C 27.191406 13.433594 27.292969 14.078125 27.308594 14.738281 C 27.609375 14.917969 27.894531 15.105469 28.164062 15.316406 C 29.667969 16.476562 30.5 17.96875 30.5 19.519531 C 30.5 21.070312 29.671875 22.5625 28.164062 23.722656 C 26.515625 24.996094 24.296875 25.695312 21.917969 25.695312 C 20.316406 25.695312 18.785156 25.378906 17.449219 24.78125 C 16.621094 24.945312 15.761719 25.046875 14.875 25.082031 C 16.695312 26.449219 19.175781 27.292969 21.917969 27.292969 C 23.675781 27.292969 25.332031 26.949219 26.769531 26.335938 L 30.441406 28.210938 L 29.699219 24.464844 C 31.136719 23.121094 32 21.398438 32 19.519531 Z M 32 19.519531 "/>
<path style=" stroke:none;fill-rule:nonzero;fill:rgb(100%,100%,100%);fill-opacity:1;" d="M 26.265625 13.691406 C 26.246094 13.03125 26.144531 12.386719 25.972656 11.765625 C 24.691406 7.207031 19.429688 3.789062 13.136719 3.789062 C 5.878906 3.789062 0 8.328125 0 13.921875 C 0 16.367188 1.125 18.613281 3 20.363281 L 2.03125 25.242188 L 6.816406 22.800781 C 8.691406 23.597656 10.84375 24.050781 13.136719 24.050781 C 13.367188 24.050781 13.601562 24.046875 13.832031 24.039062 C 14.714844 24.003906 15.578125 23.898438 16.40625 23.734375 C 22.078125 22.613281 26.269531 18.644531 26.269531 13.921875 C 26.269531 13.84375 26.269531 13.769531 26.265625 13.691406 Z M 21.273438 19.398438 C 19.28125 20.933594 16.65625 21.832031 13.816406 21.957031 C 13.589844 21.96875 13.363281 21.972656 13.132812 21.972656 C 12.695312 21.972656 12.261719 21.953125 11.832031 21.914062 C 9.230469 21.699219 6.839844 20.824219 4.996094 19.402344 C 3.035156 17.890625 1.957031 15.945312 1.957031 13.921875 C 1.957031 11.902344 3.035156 9.957031 4.996094 8.445312 C 7.144531 6.789062 10.035156 5.875 13.132812 5.875 C 16.234375 5.875 19.125 6.789062 21.273438 8.445312 C 22.246094 9.195312 23 10.050781 23.515625 10.96875 C 23.84375 11.554688 24.070312 12.164062 24.199219 12.785156 C 24.273438 13.160156 24.3125 13.539062 24.3125 13.921875 C 24.3125 15.941406 23.234375 17.886719 21.273438 19.398438 Z M 21.273438 19.398438 "/>
<path style=" stroke:none;fill-rule:nonzero;fill:rgb(100%,100%,100%);fill-opacity:1;" d="M 19.230469 13.953125 C 19.230469 14.746094 18.585938 15.390625 17.792969 15.390625 C 17 15.390625 16.355469 14.746094 16.355469 13.953125 C 16.355469 13.160156 17 12.515625 17.792969 12.515625 C 18.585938 12.515625 19.230469 13.160156 19.230469 13.953125 Z M 19.230469 13.953125 "/>
<path style=" stroke:none;fill-rule:nonzero;fill:rgb(100%,100%,100%);fill-opacity:1;" d="M 14.570312 13.953125 C 14.570312 14.746094 13.929688 15.390625 13.136719 15.390625 C 12.339844 15.390625 11.699219 14.746094 11.699219 13.953125 C 11.699219 13.160156 12.339844 12.515625 13.136719 12.515625 C 13.929688 12.515625 14.570312 13.160156 14.570312 13.953125 Z M 14.570312 13.953125 "/>
<path style=" stroke:none;fill-rule:nonzero;fill:rgb(100%,100%,100%);fill-opacity:1;" d="M 9.914062 13.953125 C 9.914062 14.746094 9.269531 15.390625 8.476562 15.390625 C 7.679688 15.390625 7.039062 14.746094 7.039062 13.953125 C 7.039062 13.15625 7.679688 12.515625 8.476562 12.515625 C 9.269531 12.515625 9.914062 13.15625 9.914062 13.953125 Z M 9.914062 13.953125 "/>
</g>
</svg>
